<svg aria-hidden="true" style="position: absolute; width: 0; height: 0; overflow: hidden;" version="1.1"
    xmlns="http://www.w3.org/2000/svg"
    xmlns:xlink="http://www.w3.org/1999/xlink">
    <defs>
		<symbol id="icon-camera-2" viewBox="0 0 16 16">
			<title>camera 2</title>
			<g class="nc-icon-wrapper">
				<path d="M14,3H12.118L10.9.553A1,1,0,0,0,10,0H6a1,1,0,0,0-.895.553L3.882,3H2A2,2,0,0,0,0,5v8a2,2,0,0,0,2,2H14a2,2,0,0,0,2-2V5A2,2,0,0,0,14,3ZM8,12a3,3,0,1,1,3-3A3,3,0,0,1,8,12Z" fill="currentColor" stroke="none"></path>
			</g>
		</symbol>
		<symbol id="icon-gear" viewBox="0 0 16 16">
			<title>gear</title>
			<g class="nc-icon-wrapper">
				<circle fill="none" stroke="currentColor" cx="8" cy="8" r="2.5"></circle>
				<path fill="none" stroke="currentColor" d="M13.5,8 c0-0.465-0.064-0.913-0.172-1.344l1.917-1.107l-1.5-2.598L11.83,4.057c-0.644-0.626-1.441-1.093-2.33-1.344V0.5h-3v2.212 C5.612,2.964,4.815,3.431,4.17,4.057L2.255,2.951l-1.5,2.598l1.917,1.107C2.564,7.087,2.5,7.535,2.5,8 c0,0.464,0.064,0.913,0.172,1.344l-1.917,1.107l1.5,2.598l1.916-1.106c0.644,0.626,1.441,1.093,2.33,1.344V15.5h3v-2.212 c0.889-0.252,1.685-0.719,2.33-1.344l1.916,1.106l1.5-2.598l-1.917-1.107C13.436,8.913,13.5,8.464,13.5,8z"></path>
			</g>
		</symbol>
		<symbol id="icon-lock" viewBox="0 0 16 16">
			<title>lock</title>
			<g class="nc-icon-wrapper">
				<path d="M13.5,15.5H2.5a1,1,0,0,1-1-1v-7a1,1,0,0,1,1-1h11a1,1,0,0,1,1,1v7A1,1,0,0,1,13.5,15.5Z" fill="none" stroke="currentColor"></path>
				<path d="M4.5,6.5V4A3.5,3.5,0,0,1,8,.5H8A3.5,3.5,0,0,1,11.5,4V6.5" fill="none" stroke="currentColor"></path>
				<circle cx="8" cy="11" r="1.5" fill="none" stroke="currentColor"></circle>
			</g>
		</symbol>
		<symbol id="icon-user" viewBox="0 0 16 16">
			<title>user</title>
			<g class="nc-icon-wrapper">
				<path d="M14.5,12.976a1,1,0,0,0-.426-.82A10.367,10.367,0,0,0,8,10.5a10.367,10.367,0,0,0-6.074,1.656,1,1,0,0,0-.426.82V15.5h13Z" fill="none" stroke="currentColor"></path>
				<circle cx="8" cy="4" r="3.5" fill="none" stroke="currentColor"></circle>
			</g>
		</symbol>
        <symbol id="icon-list-bullet" viewBox="0 0 24 24">
            <g class="nc-icon-wrapper">
                <circle fill="none" stroke="currentColor" cx="3" cy="4" r="2"></circle>
                <circle fill="none" stroke="currentColor" cx="3" cy="12" r="2"></circle>
                <circle fill="none" stroke="currentColor" cx="3" cy="20" r="2"></circle>
                <line fill="none" stroke="currentColor" x1="9" y1="4" x2="23" y2="4"></line>
                <line fill="none" stroke="currentColor" x1="9" y1="12" x2="23" y2="12"></line>
                <line fill="none" stroke="currentColor" x1="9" y1="20" x2="23" y2="20"></line>
            </g>
        </symbol>
        <symbol id="icon-multiple" viewBox="0 0 24 24">
            <g class="nc-icon-wrapper">
                <path fill="none" stroke="currentColor" d="M15,23H1v-4.313 c0-1.213,0.725-2.307,1.846-2.772C3.981,15.445,5.67,15,8,15s4.019,0.445,5.154,0.916C14.275,16.38,15,17.474,15,18.687V23z"></path>
                <circle fill="none" stroke="currentColor" cx="8" cy="8" r="4"></circle>
                <path fill="none" stroke="currentColor" d="M23,11.836 c0-0.604-0.265-1.179-0.738-1.554C21.539,9.708,20.285,9,18.5,9s-3.039,0.708-3.762,1.282C14.265,10.657,14,11.232,14,11.836V13h9 V11.836z"></path>
                <circle fill="none" stroke="currentColor" cx="18.5" cy="3.5" r="2.5"></circle>
            </g>
        </symbol>
        <symbol id="icon-blockchain" viewBox="0 0 24 24">
            <g class="nc-icon-wrapper">
                <polyline points="2 4 7 6.5 12 4" fill="none" stroke="currentColor"></polyline>
                <polygon points="12 4 7 1.5 2 4 2 10.5 7 13 12 10.5 12 4" fill="none" stroke="currentColor"></polygon>
                <line x1="7" y1="6.5" x2="7" y2="13" fill="none" stroke="currentColor"></line>
                <polyline points="12 4 17 6.5 22 4" fill="none" stroke="currentColor"></polyline>
                <polygon points="22 4 17 1.5 12 4 12 10.5 17 13 22 10.5 22 4" fill="none" stroke="currentColor"></polygon>
                <line x1="17" y1="6.5" x2="17" y2="13" fill="none" stroke="currentColor"></line>
                <polyline points="7 13 12 15.5 17 13" fill="none" stroke="currentColor"></polyline>
                <line x1="12" y1="15.5" x2="12" y2="22" fill="none" stroke="currentColor"></line>
                <polygon points="17 13 12 10.5 7 13 7 19.5 12 22 17 19.5 17 13" fill="none" stroke="currentColor"></polygon>
            </g>
        </symbol>
        <symbol id="icon-d-add" viewBox="0 0 24 24">
            <title>d add</title>
            <g class="nc-icon-wrapper">
                <path fill="currentColor" d="M23,9h-8V1c0-0.6-0.4-1-1-1h-4C9.4,0,9,0.4,9,1v8H1c-0.6,0-1,0.4-1,1v4c0,0.6,0.4,1,1,1h8v8c0,0.6,0.4,1,1,1 h4c0.6,0,1-0.4,1-1v-8h8c0.6,0,1-0.4,1-1v-4C24,9.4,23.6,9,23,9z" stroke="none"></path>
            </g>
        </symbol>
        <symbol id="icon-i-add" viewBox="0 0 24 24">
            <title>i add</title>
            <g class="nc-icon-wrapper">
                <line fill="none" stroke="currentColor" x1="12" y1="7" x2="12" y2="17"></line>
                <line fill="none" stroke="currentColor" x1="17" y1="12" x2="7" y2="12"></line>
            </g>
        </symbol>

        <symbol id="icon-moon" viewBox="0 0 24 24">
            <g class="nc-icon-wrapper">
                <path fill="none" stroke="currentColor" d="M19,15C13.5,15,9,10.5,9,5 c0-0.9,0.1-1.8,0.4-2.6C5.1,3.5,2,7.4,2,12c0,5.5,4.5,10,10,10c4.6,0,8.5-3.1,9.6-7.4C20.8,14.9,19.9,15,19,15z"></path>
            </g>
        </symbol>
        <symbol id="icon-sunny" viewBox="0 0 24 24">
            <g class="nc-icon-wrapper">
                <path d="M6.76 4.84l-1.8-1.79-1.41 1.41 1.79 1.79 1.42-1.41zM4 10.5H1v2h3v-2zm9-9.95h-2V3.5h2V.55zm7.45 3.91l-1.41-1.41-1.79 1.79 1.41 1.41 1.79-1.79zm-3.21 13.7l1.79 1.8 1.41-1.41-1.8-1.79-1.4 1.4zM20 10.5v2h3v-2h-3zm-8-5c-3.31 0-6 2.69-6 6s2.69 6 6 6 6-2.69 6-6-2.69-6-6-6zm-1 16.95h2V19.5h-2v2.95zm-7.45-3.91l1.41 1.41 1.79-1.8-1.41-1.41-1.79 1.8z" fill="currentColor" stroke="none"></path>
            </g>
        </symbol>
        <symbol id="icon-x" viewBox="0 0 24 24">
            <path d="M5.293 6.707l5.293 5.293-5.293 5.293c-0.391 0.391-0.391 1.024 0 1.414s1.024 0.391 1.414 0l5.293-5.293 5.293 5.293c0.391 0.391 1.024 0.391 1.414 0s0.391-1.024 0-1.414l-5.293-5.293 5.293-5.293c0.391-0.391 0.391-1.024 0-1.414s-1.024-0.391-1.414 0l-5.293 5.293-5.293-5.293c-0.391-0.391-1.024-0.391-1.414 0s-0.391 1.024 0 1.414z"></path>
        </symbol>
        <symbol id="icon-check" viewBox="0 0 24 24">
            <path d="M9 16.172l10.594-10.594 1.406 1.406-12 12-5.578-5.578 1.406-1.406z"></path>
        </symbol>
        <symbol id="icon-dots" viewBox="0 0 32 32">
            <g class="nc-icon-wrapper">
                <circle fill="currentColor" cx="16" cy="16" r="3" stroke="none"></circle>
                <circle fill="currentColor" cx="4" cy="16" r="3" stroke="none"></circle>
                <circle fill="currentColor" cx="28" cy="16" r="3" stroke="none"></circle>
            </g>
        </symbol>






        <symbol id="icon-maximize" viewBox="0 0 24 24">
            <path d="M8 2h-3c-0.828 0-1.58 0.337-2.121 0.879s-0.879 1.293-0.879 2.121v3c0 0.552 0.448 1 1 1s1-0.448 1-1v-3c0-0.276 0.111-0.525 0.293-0.707s0.431-0.293 0.707-0.293h3c0.552 0 1-0.448 1-1s-0.448-1-1-1zM22 8v-3c0-0.828-0.337-1.58-0.879-2.121s-1.293-0.879-2.121-0.879h-3c-0.552 0-1 0.448-1 1s0.448 1 1 1h3c0.276 0 0.525 0.111 0.707 0.293s0.293 0.431 0.293 0.707v3c0 0.552 0.448 1 1 1s1-0.448 1-1zM16 22h3c0.828 0 1.58-0.337 2.121-0.879s0.879-1.293 0.879-2.121v-3c0-0.552-0.448-1-1-1s-1 0.448-1 1v3c0 0.276-0.111 0.525-0.293 0.707s-0.431 0.293-0.707 0.293h-3c-0.552 0-1 0.448-1 1s0.448 1 1 1zM2 16v3c0 0.828 0.337 1.58 0.879 2.121s1.293 0.879 2.121 0.879h3c0.552 0 1-0.448 1-1s-0.448-1-1-1h-3c-0.276 0-0.525-0.111-0.707-0.293s-0.293-0.431-0.293-0.707v-3c0-0.552-0.448-1-1-1s-1 0.448-1 1z"></path>
        </symbol>
        <symbol id="icon-compass" viewBox="0 0 24 24">
            <g class="nc-icon-wrapper">
                <path fill="currentColor" d="M12,24C5.383,24,0,18.617,0,12S5.383,0,12,0s12,5.383,12,12S18.617,24,12,24z M12,2C6.486,2,2,6.486,2,12 s4.486,10,10,10s10-4.486,10-10S17.514,2,12,2z"></path>
                <path fill="currentColor" d="M9.238,9.238l-4.142,9.666l9.666-4.142l4.142-9.666L9.238,9.238z M8.904,15.096l1.858-4.334 l2.477,2.477L8.904,15.096z"></path>
            </g>
        </symbol>
        <symbol id="icon-discount" viewBox="0 0 24 24">
            <g class="nc-icon-wrapper" stroke-width="2">
                <polygon fill="none" stroke="currentColor" points="19,15 22,12 19,9 19,5 15,5 12,2 9,5 5,5 5,9 2,12 5,15 5,19 9,19 12,22 15,19 19,19 "></polygon>
                <line fill="none" x1="15" y1="9" x2="9" y2="15" stroke="currentColor"></line>
                <circle cx="9.5" cy="9.5" r="1.5" stroke="currentColor"></circle>
                <circle cx="14.5" cy="14.5" r="1.5" stroke="currentColor"></circle>
            </g>
        </symbol>


    </defs>

</svg>
